<svg width="440" height="543" viewBox="0 0 440 543" fill="none" xmlns="http://www.w3.org/2000/svg">
<path d="M220.725 303.746L211.008 327.343L234.631 337.049L244.348 313.452L220.725 303.746Z" fill="white" stroke="#979797" stroke-miterlimit="10"/>
<path d="M335.042 319.184L311.467 329.006L321.3 352.555L344.875 342.733L335.042 319.184Z" fill="white" stroke="#979797" stroke-miterlimit="10"/>
<path d="M341.745 201.309L316.212 200.593L315.495 226.098L341.028 226.814L341.745 201.309Z" fill="white" stroke="#979797" stroke-miterlimit="10"/>
<path d="M274.359 428.424L287.459 426.011L296.152 415.015L302.436 427.35L315.656 431.572L306.204 441.508L305.922 455.212L293.553 448.921L280.399 453.269L281.968 439.346L274.359 428.424Z" fill="white" stroke="#979797" stroke-miterlimit="10"/>
<path d="M246.581 145.303L258.985 140.466L265.456 128.024L273.953 138.958L287.735 140.611L280.331 152.151L282.635 165.665L269.304 161.815L257.208 168.563L256.117 154.59L246.581 145.303Z" fill="white" stroke="#979797" stroke-miterlimit="10"/>
<path d="M81.1212 275.506L94.3493 277.032L105.889 269.062L108.277 282.705L119.68 290.607L107.726 297.342L103.425 310.359L93.4516 300.719L79.5967 301.029L85.1882 288.168L81.1212 275.506Z" fill="white" stroke="#979797" stroke-miterlimit="10"/>
<path d="M288.952 379.065L247.034 356.132L288.479 332.347L288.952 379.065Z" fill="white" stroke="#979797" stroke-miterlimit="10"/>
<path d="M324.188 171.649L327.444 124.02L366.438 151.623L324.188 171.649Z" fill="white" stroke="#979797" stroke-miterlimit="10"/>
<path d="M289.418 195.084C291.46 195.923 292.435 198.257 291.595 200.297C290.755 202.336 288.419 203.31 286.376 202.471C284.334 201.631 283.36 199.298 284.2 197.258C285.039 195.219 287.376 194.245 289.418 195.084Z" fill="white" stroke="#979797"/>
<path d="M336.045 82.5259C338.088 83.3651 339.062 85.6989 338.222 87.7383C337.382 89.7776 335.046 90.7513 333.004 89.9121C330.961 89.073 329.987 86.7391 330.827 84.6998C331.667 82.6605 334.003 81.6867 336.045 82.5259Z" fill="white" stroke="#979797"/>
<path d="M165.595 291.766C167.637 292.605 168.612 294.939 167.772 296.978C166.932 299.017 164.596 299.991 162.553 299.152C160.511 298.313 159.537 295.979 160.377 293.94C161.216 291.9 163.552 290.927 165.595 291.766Z" fill="white" stroke="#979797"/>
<path d="M322.887 384.17C324.929 385.01 325.903 387.343 325.064 389.383C324.224 391.422 321.888 392.396 319.845 391.557C317.803 390.717 316.829 388.384 317.668 386.344C318.508 384.305 320.844 383.331 322.887 384.17Z" fill="white" stroke="#979797"/>
<path d="M187.242 383.311C191.07 374.015 186.629 363.38 177.323 359.556C168.017 355.733 157.37 360.169 153.542 369.464C149.715 378.76 154.155 389.395 163.461 393.219C172.767 397.042 183.414 392.606 187.242 383.311Z" fill="white" stroke="#979797" stroke-miterlimit="10"/>
<path d="M220.728 234.076C224.556 224.78 220.115 214.145 210.809 210.321C201.503 206.498 190.856 210.934 187.029 220.229C183.201 229.525 187.642 240.16 196.948 243.984C206.254 247.807 216.901 243.371 220.728 234.076Z" fill="white" stroke="#979797" stroke-miterlimit="10"/>
<path d="M309.809 293.362C313.637 284.067 309.196 273.432 299.89 269.608C290.585 265.784 279.938 270.22 276.11 279.516C272.282 288.812 276.723 299.447 286.029 303.27C295.335 307.094 305.982 302.658 309.809 293.362Z" fill="white" stroke="#979797" stroke-miterlimit="10"/>
</svg>
