<?xml version="1.0" encoding="UTF-8"?>
<svg id="Layer_1" data-name="Layer 1" xmlns="http://www.w3.org/2000/svg" xmlns:xlink="http://www.w3.org/1999/xlink" viewBox="0 0 400 400">
  <defs>
    <style>
      .cls-1 {
        clip-path: url(#clippath);
      }

      .cls-2 {
        fill: none;
      }

      .cls-2, .cls-3, .cls-4, .cls-5 {
        stroke-width: 0px;
      }

      .cls-6 {
        clip-path: url(#clippath-1);
      }

      .cls-3 {
        fill: #fff;
      }

      .cls-4 {
        fill: #002e6d;
      }

      .cls-5 {
        fill: #00c1de;
      }
    </style>
    <clipPath id="clippath">
      <rect class="cls-2" x="-.28" y="202.79" width="242.82" height="103.15"/>
    </clipPath>
    <clipPath id="clippath-1">
      <rect class="cls-2" x=".1" y="305.55" width="400.23" height="94.87"/>
    </clipPath>
  </defs>
  <rect class="cls-5" width="400" height="400"/>
  <g>
    <path class="cls-3" d="m59.05,177.45c1.65,0,2.9.43,3.75,1.27.85.85,1.27,2.04,1.27,3.57s-.42,2.72-1.27,3.58c-.85.86-2.1,1.28-3.75,1.26h-5v6.7h-2.18v-16.39h7.18Zm-.73,7.85c1.24.02,2.15-.24,2.72-.76.57-.52.86-1.27.86-2.25s-.29-1.72-.86-2.24c-.57-.51-1.48-.77-2.72-.77h-4.27v6.01h4.27Z"/>
    <path class="cls-3" d="m67.88,181.97v2.5h.05c.47-.96,1.06-1.68,1.74-2.13.69-.46,1.56-.67,2.62-.64v2.07c-.78,0-1.45.11-2,.32-.55.21-.99.53-1.33.94-.34.41-.58.91-.73,1.5-.15.59-.23,1.27-.23,2.03v5.28h-1.95v-11.87h1.84Z"/>
    <path class="cls-3" d="m73.57,179.84v-2.39h1.95v2.39h-1.95Zm1.95,2.13v11.87h-1.95v-11.87h1.95Z"/>
    <path class="cls-3" d="m80.09,181.97v1.88h.05c.81-1.44,2.1-2.16,3.86-2.16.78,0,1.43.11,1.95.32.52.22.94.51,1.26.9.32.38.55.84.68,1.37.13.53.2,1.11.2,1.76v7.8h-1.95v-8.03c0-.73-.21-1.32-.64-1.74-.43-.43-1.02-.64-1.77-.64-.6,0-1.11.09-1.55.28-.44.18-.8.44-1.09.78-.29.34-.51.73-.65,1.18s-.22.94-.22,1.48v6.7h-1.95v-11.87h1.84Z"/>
    <path class="cls-3" d="m97.81,184.04c-.49-.41-1.15-.62-1.97-.62-.7,0-1.29.13-1.77.39-.47.26-.85.6-1.14,1.03-.28.43-.49.92-.61,1.48-.12.56-.18,1.14-.18,1.73,0,.55.06,1.09.19,1.61.13.52.33.98.61,1.39.28.41.63.73,1.08.97.44.25.97.37,1.58.37.96,0,1.72-.25,2.26-.76.54-.51.88-1.22,1-2.13h2c-.21,1.47-.76,2.6-1.64,3.4-.88.8-2.08,1.19-3.59,1.19-.9,0-1.7-.15-2.4-.44-.7-.29-1.28-.7-1.74-1.24-.47-.54-.82-1.17-1.06-1.92-.24-.74-.36-1.56-.36-2.44s.11-1.72.34-2.49c.23-.77.58-1.45,1.04-2.02.47-.57,1.05-1.02,1.76-1.35.7-.33,1.52-.49,2.46-.49.67,0,1.3.08,1.89.24.59.16,1.11.41,1.56.75.45.34.82.76,1.11,1.27.29.51.47,1.12.55,1.82h-2.02c-.15-.75-.47-1.33-.96-1.74Z"/>
    <path class="cls-3" d="m102.86,179.84v-2.39h1.95v2.39h-1.95Zm1.95,2.13v11.87h-1.95v-11.87h1.95Z"/>
    <path class="cls-3" d="m109.56,181.97v1.61h.05c.32-.66.83-1.14,1.51-1.43.69-.3,1.45-.45,2.27-.45.92,0,1.72.17,2.4.51.68.34,1.25.79,1.7,1.37.45.57.79,1.24,1.02,1.99.23.75.34,1.55.34,2.39s-.11,1.64-.33,2.39c-.22.75-.56,1.4-1.01,1.96-.45.56-1.02,1-1.7,1.32-.68.32-1.47.48-2.38.48-.29,0-.62-.03-.98-.09-.36-.06-.72-.16-1.07-.3-.35-.14-.68-.32-1-.56-.31-.24-.58-.53-.79-.88h-.05v6.1h-1.95v-16.39h1.95Zm7.01,4.21c-.15-.53-.37-1-.67-1.41s-.68-.74-1.15-.99c-.47-.24-1.01-.37-1.64-.37-.66,0-1.22.13-1.68.39-.46.26-.83.6-1.12,1.02-.29.42-.5.9-.63,1.43-.13.54-.2,1.08-.2,1.63,0,.58.07,1.14.21,1.69.14.54.36,1.02.65,1.43.3.41.68.75,1.16,1,.47.25,1.05.38,1.72.38s1.24-.13,1.69-.39c.45-.26.81-.6,1.09-1.03.28-.43.47-.92.6-1.47.12-.55.18-1.12.18-1.7,0-.55-.07-1.09-.22-1.62Z"/>
    <path class="cls-3" d="m122.92,177.45v16.39h-1.95v-16.39h1.95Z"/>
    <path class="cls-3" d="m134.05,193.08c-.89.67-2,1.01-3.35,1.01-.95,0-1.77-.15-2.47-.46-.7-.31-1.28-.74-1.76-1.29-.47-.55-.83-1.21-1.07-1.97-.24-.76-.37-1.6-.4-2.5,0-.9.14-1.73.41-2.48s.66-1.4,1.16-1.95c.5-.55,1.09-.98,1.77-1.28.68-.31,1.43-.46,2.24-.46,1.06,0,1.93.22,2.63.65.7.44,1.25.99,1.68,1.66.42.67.71,1.41.87,2.2.16.8.23,1.55.19,2.27h-8.88c-.02.52.05,1.01.18,1.48s.36.88.67,1.24c.31.36.7.65,1.17.86.47.21,1.03.32,1.68.32.83,0,1.5-.19,2.03-.57.53-.38.88-.96,1.04-1.74h1.93c-.26,1.33-.83,2.33-1.72,3.01Zm-.47-7.62c-.18-.41-.41-.77-.71-1.07s-.65-.54-1.06-.71c-.41-.18-.85-.26-1.34-.26s-.96.09-1.37.26-.75.42-1.04.72c-.29.31-.52.66-.69,1.07-.17.41-.27.84-.3,1.3h6.82c-.03-.46-.13-.9-.31-1.31Z"/>
    <path class="cls-3" d="m139.16,191.19c.18.3.42.54.72.71.3.18.63.3,1.01.38.37.08.76.11,1.16.11.31,0,.63-.02.96-.07.34-.05.65-.13.93-.25.28-.12.52-.3.7-.54.18-.24.28-.54.28-.91,0-.5-.19-.89-.57-1.15-.38-.26-.86-.47-1.43-.63s-1.2-.31-1.87-.44-1.3-.31-1.87-.55-1.05-.57-1.43-1c-.38-.43-.57-1.02-.57-1.79,0-.6.13-1.11.4-1.54.27-.43.61-.78,1.03-1.04.42-.27.89-.47,1.42-.6.53-.13,1.05-.2,1.57-.2.67,0,1.29.06,1.86.17.57.11,1.07.31,1.5.6s.78.66,1.04,1.15c.26.48.41,1.08.46,1.8h-1.95c-.03-.38-.13-.7-.3-.95-.17-.25-.38-.46-.64-.61-.26-.15-.55-.26-.86-.33-.31-.07-.63-.1-.95-.1-.29,0-.59.02-.88.07s-.57.13-.81.24c-.24.12-.44.27-.6.46-.15.19-.23.44-.23.75,0,.34.12.62.36.84.24.22.54.41.91.55.37.15.78.27,1.24.37.46.1.92.2,1.38.31.49.11.97.24,1.43.39.47.15.88.36,1.24.61.36.25.65.57.87.95.22.38.33.86.33,1.42,0,.72-.15,1.32-.45,1.79s-.69.86-1.17,1.15-1.03.49-1.63.61c-.6.11-1.2.17-1.8.17-.66,0-1.29-.07-1.88-.21-.6-.14-1.12-.36-1.58-.68-.46-.31-.83-.73-1.1-1.24-.28-.51-.43-1.14-.46-1.87h1.95c.02.43.11.79.3,1.09Z"/>
    <path class="cls-3" d="m154.66,185.47c.24-.76.61-1.42,1.1-1.97.49-.56,1.09-1,1.81-1.32.72-.32,1.55-.48,2.48-.48s1.78.16,2.49.48c.71.32,1.31.76,1.8,1.32.49.56.86,1.22,1.1,1.97.24.76.37,1.57.37,2.44s-.12,1.68-.37,2.43c-.24.75-.61,1.4-1.1,1.96-.49.56-1.09,1-1.8,1.31-.71.31-1.54.47-2.49.47s-1.76-.16-2.48-.47c-.72-.31-1.32-.75-1.81-1.31-.49-.56-.86-1.21-1.1-1.96-.24-.75-.37-1.56-.37-2.43s.12-1.69.37-2.44Zm1.99,4.36c.19.56.45,1.03.79,1.4.34.38.73.66,1.18.86.45.2.93.3,1.43.3s.98-.1,1.43-.3c.45-.2.85-.49,1.18-.86.34-.37.6-.84.79-1.4.19-.56.29-1.2.29-1.92s-.1-1.36-.29-1.92c-.19-.56-.46-1.03-.79-1.41-.34-.38-.73-.67-1.18-.87-.45-.2-.93-.3-1.43-.3s-.98.1-1.43.3c-.45.2-.85.49-1.18.87-.34.38-.6.85-.79,1.41-.19.56-.29,1.2-.29,1.92s.1,1.36.29,1.92Z"/>
    <path class="cls-3" d="m166.61,183.7v-1.72h2v-1.77c0-.96.28-1.69.84-2.19.56-.5,1.37-.75,2.44-.75.18,0,.39.02.63.05.24.03.45.08.63.14v1.7c-.17-.06-.35-.1-.55-.13-.2-.02-.38-.03-.55-.03-.47,0-.84.09-1.1.28-.26.18-.39.54-.39,1.06v1.65h2.3v1.72h-2.3v10.14h-1.95v-10.14h-2Z"/>
  </g>
  <g class="cls-1">
    <g>
      <path class="cls-4" d="m35.65,213.05c5.49,0,10.61.88,15.34,2.63,4.73,1.75,8.84,4.38,12.3,7.88,3.46,3.5,6.17,7.88,8.12,13.13,1.95,5.25,2.93,11.42,2.93,18.51,0,6.21-.8,11.94-2.39,17.19-1.59,5.25-4,9.79-7.22,13.61-3.22,3.82-7.24,6.83-12.06,9.01-4.82,2.19-10.49,3.28-17.01,3.28H-1.13v-85.25h36.77Zm-1.31,69.49c2.71,0,5.33-.44,7.88-1.31,2.55-.87,4.82-2.33,6.81-4.36,1.99-2.03,3.58-4.68,4.78-7.94,1.19-3.26,1.79-7.24,1.79-11.94,0-4.3-.42-8.18-1.25-11.64-.84-3.46-2.21-6.43-4.12-8.9-1.91-2.47-4.44-4.36-7.58-5.67-3.15-1.31-7.03-1.97-11.64-1.97h-13.37v53.73h16.72Z"/>
      <path class="cls-4" d="m77.68,255.55c.24-3.98,1.23-7.28,2.98-9.91,1.75-2.63,3.98-4.73,6.69-6.33,2.7-1.59,5.75-2.73,9.13-3.4,3.38-.67,6.79-1.01,10.21-1.01,3.1,0,6.25.22,9.43.66,3.18.44,6.09,1.29,8.72,2.57,2.63,1.27,4.78,3.04,6.45,5.31,1.67,2.27,2.51,5.27,2.51,9.01v32.12c0,2.79.16,5.45.48,8,.32,2.55.88,4.46,1.67,5.73h-17.19c-.32-.96-.58-1.93-.78-2.93-.2-.99-.34-2.01-.42-3.04-2.71,2.79-5.89,4.74-9.55,5.85-3.66,1.11-7.4,1.67-11.22,1.67-2.95,0-5.69-.36-8.24-1.07-2.55-.72-4.78-1.83-6.69-3.34-1.91-1.51-3.4-3.42-4.48-5.73-1.07-2.31-1.61-5.05-1.61-8.24,0-3.5.62-6.39,1.85-8.66,1.23-2.27,2.82-4.08,4.78-5.43,1.95-1.35,4.18-2.37,6.69-3.04,2.51-.68,5.03-1.21,7.58-1.61,2.55-.4,5.05-.72,7.52-.95,2.47-.24,4.66-.6,6.57-1.07,1.91-.48,3.42-1.17,4.54-2.09,1.11-.91,1.63-2.25,1.55-4,0-1.83-.3-3.28-.9-4.36s-1.39-1.91-2.39-2.51c-1-.6-2.15-.99-3.46-1.19-1.31-.2-2.73-.3-4.24-.3-3.34,0-5.97.72-7.88,2.15-1.91,1.43-3.03,3.82-3.34,7.16h-16.95Zm39.16,12.54c-.72.64-1.61,1.13-2.69,1.49-1.07.36-2.23.66-3.46.9-1.24.24-2.53.44-3.88.6-1.35.16-2.71.36-4.06.6-1.27.24-2.53.56-3.76.95-1.23.4-2.31.94-3.22,1.61-.92.68-1.65,1.53-2.21,2.57-.56,1.04-.84,2.35-.84,3.94s.28,2.79.84,3.82c.56,1.04,1.31,1.85,2.27,2.45.96.6,2.07,1.01,3.34,1.25,1.27.24,2.59.36,3.94.36,3.34,0,5.93-.56,7.76-1.67,1.83-1.11,3.18-2.45,4.06-4,.88-1.55,1.41-3.12,1.61-4.72.2-1.59.3-2.87.3-3.82v-6.33Z"/>
      <path class="cls-4" d="m173.67,236.57v11.34h-12.42v30.57c0,2.87.48,4.78,1.43,5.73.96.96,2.87,1.43,5.73,1.43.96,0,1.87-.04,2.75-.12.88-.08,1.71-.2,2.51-.36v13.13c-1.43.24-3.03.4-4.78.48-1.75.08-3.46.12-5.13.12-2.63,0-5.12-.18-7.46-.54-2.35-.36-4.42-1.05-6.21-2.09-1.79-1.03-3.21-2.51-4.24-4.42-1.04-1.91-1.55-4.42-1.55-7.52v-36.42h-10.27v-11.34h10.27v-18.51h16.95v18.51h12.42Z"/>
      <path class="cls-4" d="m173.91,255.55c.24-3.98,1.23-7.28,2.98-9.91,1.75-2.63,3.98-4.73,6.69-6.33,2.7-1.59,5.75-2.73,9.13-3.4,3.38-.67,6.79-1.01,10.21-1.01,3.1,0,6.25.22,9.43.66,3.18.44,6.09,1.29,8.72,2.57,2.63,1.27,4.78,3.04,6.45,5.31,1.67,2.27,2.51,5.27,2.51,9.01v32.12c0,2.79.16,5.45.48,8,.32,2.55.88,4.46,1.67,5.73h-17.19c-.32-.96-.58-1.93-.78-2.93-.2-.99-.34-2.01-.42-3.04-2.71,2.79-5.89,4.74-9.55,5.85-3.66,1.11-7.4,1.67-11.22,1.67-2.95,0-5.69-.36-8.24-1.07-2.55-.72-4.78-1.83-6.69-3.34-1.91-1.51-3.4-3.42-4.48-5.73-1.07-2.31-1.61-5.05-1.61-8.24,0-3.5.62-6.39,1.85-8.66,1.23-2.27,2.82-4.08,4.78-5.43,1.95-1.35,4.18-2.37,6.69-3.04,2.51-.68,5.03-1.21,7.58-1.61,2.55-.4,5.05-.72,7.52-.95,2.47-.24,4.66-.6,6.57-1.07,1.91-.48,3.42-1.17,4.54-2.09,1.11-.91,1.63-2.25,1.55-4,0-1.83-.3-3.28-.9-4.36s-1.39-1.91-2.39-2.51c-1-.6-2.15-.99-3.46-1.19-1.31-.2-2.73-.3-4.24-.3-3.34,0-5.97.72-7.88,2.15-1.91,1.43-3.03,3.82-3.34,7.16h-16.95Zm39.16,12.54c-.72.64-1.61,1.13-2.69,1.49-1.07.36-2.23.66-3.46.9-1.24.24-2.53.44-3.88.6-1.35.16-2.71.36-4.06.6-1.27.24-2.53.56-3.76.95-1.23.4-2.31.94-3.22,1.61-.92.68-1.65,1.53-2.21,2.57-.56,1.04-.84,2.35-.84,3.94s.28,2.79.84,3.82c.56,1.04,1.31,1.85,2.27,2.45.96.6,2.07,1.01,3.34,1.25,1.27.24,2.59.36,3.94.36,3.34,0,5.93-.56,7.76-1.67,1.83-1.11,3.18-2.45,4.06-4,.88-1.55,1.41-3.12,1.61-4.72.2-1.59.3-2.87.3-3.82v-6.33Z"/>
    </g>
  </g>
  <g class="cls-6">
    <g>
      <path class="cls-3" d="m16.46,379.55c1.03,1.99,2.41,3.6,4.12,4.84,1.71,1.24,3.72,2.15,6.03,2.75,2.31.6,4.7.9,7.16.9,1.67,0,3.46-.14,5.37-.42,1.91-.28,3.7-.82,5.37-1.61,1.67-.79,3.06-1.89,4.18-3.28,1.11-1.39,1.67-3.16,1.67-5.31,0-2.31-.74-4.18-2.21-5.61-1.47-1.43-3.4-2.63-5.79-3.58-2.39-.96-5.09-1.79-8.12-2.51-3.03-.72-6.09-1.51-9.19-2.39-3.18-.79-6.29-1.77-9.31-2.93-3.03-1.15-5.73-2.65-8.12-4.48-2.39-1.83-4.32-4.12-5.79-6.87-1.47-2.75-2.21-6.07-2.21-9.97,0-4.38.93-8.18,2.81-11.4,1.87-3.22,4.32-5.91,7.34-8.06,3.02-2.15,6.45-3.74,10.27-4.78,3.82-1.03,7.64-1.55,11.46-1.55,4.46,0,8.73.5,12.84,1.49,4.1,1,7.74,2.61,10.92,4.84,3.18,2.23,5.71,5.07,7.58,8.54,1.87,3.46,2.81,7.66,2.81,12.6h-18.15c-.16-2.55-.7-4.66-1.61-6.33-.92-1.67-2.13-2.99-3.64-3.94-1.51-.96-3.24-1.63-5.19-2.03-1.95-.4-4.08-.6-6.39-.6-1.51,0-3.03.16-4.54.48-1.51.32-2.89.88-4.12,1.67-1.24.8-2.25,1.79-3.04,2.98-.8,1.19-1.19,2.71-1.19,4.54,0,1.67.32,3.03.96,4.06.64,1.04,1.89,1.99,3.76,2.87,1.87.88,4.46,1.75,7.76,2.63,3.3.88,7.62,1.99,12.95,3.34,1.59.32,3.8.9,6.63,1.73,2.82.84,5.63,2.17,8.42,4,2.79,1.83,5.19,4.28,7.22,7.34,2.03,3.06,3.04,6.98,3.04,11.76,0,3.9-.76,7.52-2.27,10.86-1.51,3.34-3.76,6.23-6.75,8.66-2.98,2.43-6.69,4.32-11.1,5.67-4.42,1.35-9.53,2.03-15.34,2.03-4.7,0-9.25-.58-13.67-1.73-4.42-1.15-8.32-2.96-11.7-5.43-3.38-2.47-6.07-5.61-8.06-9.43-1.99-3.82-2.95-8.36-2.87-13.61H14.91c0,2.87.52,5.29,1.55,7.28Z"/>
      <path class="cls-3" d="m100.16,349.94c-2.71,0-4.98.62-6.81,1.85-1.83,1.24-3.32,2.83-4.48,4.78-1.15,1.95-1.97,4.1-2.45,6.45-.48,2.35-.72,4.68-.72,6.98s.24,4.5.72,6.81c.48,2.31,1.25,4.4,2.33,6.27,1.07,1.87,2.53,3.4,4.36,4.6,1.83,1.19,4.06,1.79,6.69,1.79,4.06,0,7.18-1.13,9.37-3.4,2.19-2.27,3.56-5.31,4.12-9.13h16.36c-1.12,8.2-4.3,14.45-9.55,18.74-5.25,4.3-11.98,6.45-20.18,6.45-4.62,0-8.86-.78-12.72-2.33-3.86-1.55-7.15-3.72-9.85-6.51-2.71-2.78-4.82-6.11-6.33-9.97-1.51-3.86-2.27-8.1-2.27-12.72s.7-9.21,2.09-13.31c1.39-4.1,3.44-7.64,6.15-10.63,2.7-2.99,6.01-5.31,9.91-6.98,3.9-1.67,8.36-2.51,13.37-2.51,3.66,0,7.18.48,10.57,1.43,3.38.95,6.41,2.41,9.07,4.36,2.67,1.95,4.84,4.38,6.51,7.28,1.67,2.91,2.63,6.35,2.87,10.33h-16.6c-1.12-7.08-5.29-10.63-12.54-10.63Z"/>
      <path class="cls-3" d="m132.51,329.28v-13.97h16.95v13.97h-16.95Zm16.95,9.55v61.73h-16.95v-61.73h16.95Z"/>
      <path class="cls-3" d="m173.82,385.76c2.55,2.47,6.21,3.7,10.98,3.7,3.42,0,6.37-.85,8.84-2.57,2.47-1.71,3.98-3.52,4.54-5.43h14.92c-2.39,7.4-6.05,12.7-10.98,15.88-4.94,3.18-10.91,4.78-17.91,4.78-4.86,0-9.23-.78-13.13-2.33-3.9-1.55-7.2-3.76-9.91-6.63-2.71-2.87-4.8-6.29-6.27-10.27-1.47-3.98-2.21-8.36-2.21-13.13s.76-8.91,2.27-12.9c1.51-3.98,3.66-7.42,6.45-10.33,2.79-2.9,6.11-5.19,9.97-6.87,3.86-1.67,8.14-2.51,12.83-2.51,5.25,0,9.83,1.01,13.73,3.04,3.9,2.03,7.1,4.76,9.61,8.18,2.51,3.42,4.32,7.32,5.43,11.7,1.11,4.38,1.51,8.95,1.19,13.73h-44.53c.24,5.49,1.63,9.47,4.18,11.94Zm19.16-32.48c-2.03-2.23-5.12-3.34-9.25-3.34-2.71,0-4.95.46-6.75,1.37-1.79.92-3.22,2.05-4.3,3.4-1.07,1.35-1.83,2.79-2.27,4.3-.44,1.51-.7,2.87-.78,4.06h27.58c-.8-4.3-2.21-7.56-4.24-9.79Z"/>
      <path class="cls-3" d="m233.16,338.83v8.6h.36c2.15-3.58,4.93-6.19,8.36-7.82,3.42-1.63,6.93-2.45,10.51-2.45,4.54,0,8.26.62,11.16,1.85,2.9,1.24,5.19,2.95,6.87,5.13,1.67,2.19,2.85,4.86,3.52,8,.68,3.15,1.01,6.63,1.01,10.45v37.97h-16.95v-34.86c0-5.09-.8-8.9-2.39-11.4-1.59-2.51-4.42-3.76-8.48-3.76-4.62,0-7.96,1.37-10.03,4.12-2.07,2.75-3.1,7.26-3.1,13.55v32.36h-16.95v-61.73h16.12Z"/>
      <path class="cls-3" d="m310.17,349.94c-2.71,0-4.98.62-6.81,1.85-1.83,1.24-3.32,2.83-4.48,4.78-1.15,1.95-1.97,4.1-2.45,6.45-.48,2.35-.72,4.68-.72,6.98s.24,4.5.72,6.81c.48,2.31,1.25,4.4,2.33,6.27,1.07,1.87,2.53,3.4,4.36,4.6,1.83,1.19,4.06,1.79,6.69,1.79,4.06,0,7.18-1.13,9.37-3.4,2.19-2.27,3.56-5.31,4.12-9.13h16.36c-1.12,8.2-4.3,14.45-9.55,18.74-5.25,4.3-11.98,6.45-20.18,6.45-4.62,0-8.86-.78-12.72-2.33-3.86-1.55-7.15-3.72-9.85-6.51-2.71-2.78-4.82-6.11-6.33-9.97-1.51-3.86-2.27-8.1-2.27-12.72s.7-9.21,2.09-13.31c1.39-4.1,3.44-7.64,6.15-10.63,2.7-2.99,6.01-5.31,9.91-6.98,3.9-1.67,8.36-2.51,13.37-2.51,3.66,0,7.18.48,10.57,1.43,3.38.95,6.41,2.41,9.07,4.36,2.67,1.95,4.84,4.38,6.51,7.28,1.67,2.91,2.63,6.35,2.87,10.33h-16.6c-1.12-7.08-5.29-10.63-12.54-10.63Z"/>
      <path class="cls-3" d="m360.2,385.76c2.55,2.47,6.21,3.7,10.98,3.7,3.42,0,6.37-.85,8.84-2.57,2.47-1.71,3.98-3.52,4.54-5.43h14.92c-2.39,7.4-6.05,12.7-10.98,15.88-4.94,3.18-10.91,4.78-17.91,4.78-4.86,0-9.23-.78-13.13-2.33-3.9-1.55-7.2-3.76-9.91-6.63-2.71-2.87-4.8-6.29-6.27-10.27-1.47-3.98-2.21-8.36-2.21-13.13s.76-8.91,2.27-12.9c1.51-3.98,3.66-7.42,6.45-10.33,2.79-2.9,6.11-5.19,9.97-6.87,3.86-1.67,8.14-2.51,12.83-2.51,5.25,0,9.83,1.01,13.73,3.04,3.9,2.03,7.1,4.76,9.61,8.18,2.51,3.42,4.32,7.32,5.43,11.7,1.11,4.38,1.51,8.95,1.19,13.73h-44.53c.24,5.49,1.63,9.47,4.18,11.94Zm19.16-32.48c-2.03-2.23-5.12-3.34-9.25-3.34-2.71,0-4.95.46-6.75,1.37-1.79.92-3.22,2.05-4.3,3.4-1.07,1.35-1.83,2.79-2.27,4.3-.44,1.51-.7,2.87-.78,4.06h27.58c-.8-4.3-2.21-7.56-4.24-9.79Z"/>
    </g>
  </g>
</svg>